<svg xmlns="http://www.w3.org/2000/svg" width="1920" height="1080"><path d="M-193,-264L240,-241L487,-240Z" fill="#f5fbc7" stroke="#f5fbc7" stroke-width="1.51"/><path d="M457,1328L231,1330L596,1336Z" fill="#6c9861" stroke="#6c9861" stroke-width="1.51"/><path d="M231,1330L101,1339L596,1336Z" fill="#739a66" stroke="#739a66" stroke-width="1.51"/><path d="M680,1313L596,1336L1063,1268Z" fill="#518f57" stroke="#518f57" stroke-width="1.51"/><path d="M-193,-264L487,-240L1182,-260Z" fill="#e2f4bc" stroke="#e2f4bc" stroke-width="1.51"/><path d="M1063,1268L596,1336L1508,1305Z" fill="#38844d" stroke="#38844d" stroke-width="1.51"/><path d="M1182,-260L1323,-228L1670,-240Z" fill="#9ecc94" stroke="#9ecc94" stroke-width="1.51"/><path d="M1508,1305L596,1336L1829,1343Z" fill="#1f7641" stroke="#1f7641" stroke-width="1.51"/><path d="M-193,-264L1182,-260L2094,-265Z" fill="#b7e0a8" stroke="#b7e0a8" stroke-width="1.51"/><path d="M1182,-260L1670,-240L2094,-265Z" fill="#92bd8c" stroke="#92bd8c" stroke-width="1.51"/><path d="M1766,-211L1957,-211L2094,-265Z" fill="#87ac81" stroke="#87ac81" stroke-width="1.51"/><path d="M1670,-240L1766,-211L2094,-265Z" fill="#8ab285" stroke="#8ab285" stroke-width="1.51"/><path d="M1935,1265L2073,1324L2099,1109Z" fill="#005730" stroke="#005730" stroke-width="1.51"/><path d="M1925,1138L1935,1265L2099,1109Z" fill="#005f33" stroke="#005f33" stroke-width="1.51"/><path d="M2036,271L1970,412L2103,444Z" fill="#58935a" stroke="#58935a" stroke-width="1.51"/><path d="M2086,61L2036,271L2103,444Z" fill="#64965f" stroke="#64965f" stroke-width="1.51"/><path d="M2077,536L1949,641L2132,717Z" fill="#34844c" stroke="#34844c" stroke-width="1.51"/><path d="M2057,979L2099,1109L2132,717Z" fill="#146938" stroke="#146938" stroke-width="1.51"/><path d="M2044,810L2057,979L2132,717Z" fill="#1b733f" stroke="#1b733f" stroke-width="1.51"/><path d="M2103,444L2077,536L2132,717Z" fill="#3d854f" stroke="#3d854f" stroke-width="1.51"/><path d="M1947,-11L2086,61L2134,-86Z" fill="#7ca16c" stroke="#7ca16c" stroke-width="1.51"/><path d="M2094,-265L1957,-211L2134,-86Z" fill="#83a47a" stroke="#83a47a" stroke-width="1.51"/><path d="M1957,-211L1947,-11L2134,-86Z" fill="#83a673" stroke="#83a673" stroke-width="1.51"/><path d="M2086,61L2103,444L2134,-86Z" fill="#6f9963" stroke="#6f9963" stroke-width="1.51"/><path d="M2103,444L2132,717L2134,-86Z" fill="#588e59" stroke="#588e59" stroke-width="1.51"/><path d="M1949,641L2044,810L2132,717Z" fill="#277f46" stroke="#277f46" stroke-width="1.51"/><path d="M1949,52L2036,271L2086,61Z" fill="#73a066" stroke="#73a066" stroke-width="1.51"/><path d="M2057,979L1925,1138L2099,1109Z" fill="#086335" stroke="#086335" stroke-width="1.51"/><path d="M1970,412L2077,536L2103,444Z" fill="#4b8e56" stroke="#4b8e56" stroke-width="1.51"/><path d="M1949,52L1900,247L2036,271Z" fill="#6ea165" stroke="#6ea165" stroke-width="1.51"/><path d="M1948,548L1949,641L2077,536Z" fill="#3d8b51" stroke="#3d8b51" stroke-width="1.51"/><path d="M1935,1265L1829,1343L2073,1324Z" fill="#005630" stroke="#005630" stroke-width="1.51"/><path d="M1947,-11L1949,52L2086,61Z" fill="#7ba46c" stroke="#7ba46c" stroke-width="1.51"/><path d="M1893,846L1892,951L2044,810Z" fill="#1a7840" stroke="#1a7840" stroke-width="1.51"/><path d="M2044,810L1892,951L2057,979Z" fill="#16713c" stroke="#16713c" stroke-width="1.51"/><path d="M1970,412L1948,548L2077,536Z" fill="#489056" stroke="#489056" stroke-width="1.51"/><path d="M1949,641L1893,846L2044,810Z" fill="#228146" stroke="#228146" stroke-width="1.51"/><path d="M1892,951L1925,1138L2057,979Z" fill="#0d6b38" stroke="#0d6b38" stroke-width="1.51"/><path d="M1900,247L1970,412L2036,271Z" fill="#619b5f" stroke="#619b5f" stroke-width="1.51"/><path d="M1754,730L1893,846L1949,641Z" fill="#26894a" stroke="#26894a" stroke-width="1.51"/><path d="M1769,121L1900,247L1949,52Z" fill="#76a96a" stroke="#76a96a" stroke-width="1.51"/><path d="M1802,-49L1947,-11L1957,-211Z" fill="#86ad75" stroke="#86ad75" stroke-width="1.51"/><path d="M1766,-211L1802,-49L1957,-211Z" fill="#89b27d" stroke="#89b27d" stroke-width="1.51"/><path d="M1900,247L1753,434L1970,412Z" fill="#5d9e5f" stroke="#5d9e5f" stroke-width="1.51"/><path d="M1753,434L1834,514L1970,412Z" fill="#529b5b" stroke="#529b5b" stroke-width="1.51"/><path d="M1834,514L1948,548L1970,412Z" fill="#4b9458" stroke="#4b9458" stroke-width="1.51"/><path d="M1338,1258L1063,1268L1508,1305Z" fill="#217b43" stroke="#217b43" stroke-width="1.51"/><path d="M1684,1283L1508,1305L1829,1343Z" fill="#0c6335" stroke="#0c6335" stroke-width="1.51"/><path d="M1740,291L1753,434L1900,247Z" fill="#65a562" stroke="#65a562" stroke-width="1.51"/><path d="M1948,548L1834,514L1949,641Z" fill="#409154" stroke="#409154" stroke-width="1.51"/><path d="M1892,951L1755,1173L1925,1138Z" fill="#076d39" stroke="#076d39" stroke-width="1.51"/><path d="M1925,1138L1755,1173L1935,1265Z" fill="#006436" stroke="#006436" stroke-width="1.51"/><path d="M1834,514L1754,730L1949,641Z" fill="#399152" stroke="#399152" stroke-width="1.51"/><path d="M1947,-11L1802,-49L1949,52Z" fill="#80ab70" stroke="#80ab70" stroke-width="1.51"/><path d="M1802,-49L1769,121L1949,52Z" fill="#7fae6f" stroke="#7fae6f" stroke-width="1.51"/><path d="M1741,951L1755,1173L1892,951Z" fill="#12743c" stroke="#12743c" stroke-width="1.51"/><path d="M1754,730L1821,859L1893,846Z" fill="#228446" stroke="#228446" stroke-width="1.51"/><path d="M1755,1173L1829,1343L1935,1265Z" fill="#016034" stroke="#016034" stroke-width="1.51"/><path d="M907,1267L680,1313L1063,1268Z" fill="#498d55" stroke="#498d55" stroke-width="1.51"/><path d="M1821,859L1892,951L1893,846Z" fill="#1a7c41" stroke="#1a7c41" stroke-width="1.51"/><path d="M1769,121L1740,291L1900,247Z" fill="#70a967" stroke="#70a967" stroke-width="1.51"/><path d="M1821,859L1741,951L1892,951Z" fill="#197b40" stroke="#197b40" stroke-width="1.51"/><path d="M1323,-228L1515,-192L1670,-240Z" fill="#98c48d" stroke="#98c48d" stroke-width="1.51"/><path d="M1741,951L1673,1140L1755,1173Z" fill="#11733c" stroke="#11733c" stroke-width="1.51"/><path d="M1755,1173L1684,1283L1829,1343Z" fill="#076335" stroke="#076335" stroke-width="1.51"/><path d="M1661,571L1754,730L1834,514Z" fill="#409755" stroke="#409755" stroke-width="1.51"/><path d="M1753,434L1661,571L1834,514Z" fill="#4e9d5b" stroke="#4e9d5b" stroke-width="1.51"/><path d="M1596,-36L1769,121L1802,-49Z" fill="#86b573" stroke="#86b573" stroke-width="1.51"/><path d="M1754,730L1611,857L1821,859Z" fill="#268948" stroke="#268948" stroke-width="1.51"/><path d="M1611,857L1741,951L1821,859Z" fill="#208243" stroke="#208243" stroke-width="1.51"/><path d="M1674,952L1673,1140L1741,951Z" fill="#19793f" stroke="#19793f" stroke-width="1.51"/><path d="M1670,-240L1596,-36L1766,-211Z" fill="#90ba81" stroke="#90ba81" stroke-width="1.51"/><path d="M1629,253L1740,291L1769,121Z" fill="#73ad69" stroke="#73ad69" stroke-width="1.51"/><path d="M1596,-36L1581,34L1769,121Z" fill="#87b873" stroke="#87b873" stroke-width="1.51"/><path d="M1766,-211L1596,-36L1802,-49Z" fill="#8db77a" stroke="#8db77a" stroke-width="1.51"/><path d="M487,-240L768,-187L1182,-260Z" fill="#c9e8ad" stroke="#c9e8ad" stroke-width="1.51"/><path d="M1611,857L1674,952L1741,951Z" fill="#208142" stroke="#208142" stroke-width="1.51"/><path d="M1740,291L1620,356L1753,434Z" fill="#63a763" stroke="#63a763" stroke-width="1.51"/><path d="M1661,571L1590,720L1754,730Z" fill="#399753" stroke="#399753" stroke-width="1.51"/><path d="M1581,34L1629,253L1769,121Z" fill="#7fb46f" stroke="#7fb46f" stroke-width="1.51"/><path d="M1590,720L1611,857L1754,730Z" fill="#2d914c" stroke="#2d914c" stroke-width="1.51"/><path d="M1620,356L1661,571L1753,434Z" fill="#58a45f" stroke="#58a45f" stroke-width="1.51"/><path d="M1673,1140L1684,1283L1755,1173Z" fill="#0b6b38" stroke="#0b6b38" stroke-width="1.51"/><path d="M1629,253L1620,356L1740,291Z" fill="#6cac67" stroke="#6cac67" stroke-width="1.51"/><path d="M1581,34L1478,224L1629,253Z" fill="#7fb76f" stroke="#7fb76f" stroke-width="1.51"/><path d="M1620,356L1487,512L1661,571Z" fill="#57a660" stroke="#57a660" stroke-width="1.51"/><path d="M1515,-192L1596,-36L1670,-240Z" fill="#93be83" stroke="#93be83" stroke-width="1.51"/><path d="M1469,1149L1508,1305L1673,1140Z" fill="#14733c" stroke="#14733c" stroke-width="1.51"/><path d="M1486,1018L1673,1140L1674,952Z" fill="#1b7b3f" stroke="#1b7b3f" stroke-width="1.51"/><path d="M1673,1140L1508,1305L1684,1283Z" fill="#0f6b39" stroke="#0f6b39" stroke-width="1.51"/><path d="M1486,1018L1469,1149L1673,1140Z" fill="#1a7b3f" stroke="#1a7b3f" stroke-width="1.51"/><path d="M1611,857L1486,1018L1674,952Z" fill="#238343" stroke="#238343" stroke-width="1.51"/><path d="M1487,512L1590,720L1661,571Z" fill="#47a059" stroke="#47a059" stroke-width="1.51"/><path d="M1448,76L1478,224L1581,34Z" fill="#87bd75" stroke="#87bd75" stroke-width="1.51"/><path d="M1487,512L1440,691L1590,720Z" fill="#45a259" stroke="#45a259" stroke-width="1.51"/><path d="M1515,-192L1460,-69L1596,-36Z" fill="#95c27f" stroke="#95c27f" stroke-width="1.51"/><path d="M1590,720L1466,848L1611,857Z" fill="#2e924c" stroke="#2e924c" stroke-width="1.51"/><path d="M1466,848L1486,1018L1611,857Z" fill="#298a47" stroke="#298a47" stroke-width="1.51"/><path d="M1429,432L1487,512L1620,356Z" fill="#61ae65" stroke="#61ae65" stroke-width="1.51"/><path d="M1478,224L1620,356L1629,253Z" fill="#72b26a" stroke="#72b26a" stroke-width="1.51"/><path d="M1478,224L1429,432L1620,356Z" fill="#6eb46a" stroke="#6eb46a" stroke-width="1.51"/><path d="M1174,1240L1063,1268L1338,1258Z" fill="#2b8349" stroke="#2b8349" stroke-width="1.51"/><path d="M1440,691L1466,848L1590,720Z" fill="#359b52" stroke="#359b52" stroke-width="1.51"/><path d="M1460,-69L1581,34L1596,-36Z" fill="#8fbf79" stroke="#8fbf79" stroke-width="1.51"/><path d="M1460,-69L1448,76L1581,34Z" fill="#8fc17a" stroke="#8fc17a" stroke-width="1.51"/><path d="M1345,268L1429,432L1478,224Z" fill="#76ba6f" stroke="#76ba6f" stroke-width="1.51"/><path d="M1466,848L1370,858L1486,1018Z" fill="#2d8f4a" stroke="#2d8f4a" stroke-width="1.51"/><path d="M1313,533L1440,691L1487,512Z" fill="#52ac62" stroke="#52ac62" stroke-width="1.51"/><path d="M1469,1149L1338,1258L1508,1305Z" fill="#1a763f" stroke="#1a763f" stroke-width="1.51"/><path d="M1323,-228L1460,-69L1515,-192Z" fill="#9bc88a" stroke="#9bc88a" stroke-width="1.51"/><path d="M1440,691L1362,723L1466,848Z" fill="#39a055" stroke="#39a055" stroke-width="1.51"/><path d="M1334,-10L1448,76L1460,-69Z" fill="#94c77f" stroke="#94c77f" stroke-width="1.51"/><path d="M1362,723L1370,858L1466,848Z" fill="#369c53" stroke="#369c53" stroke-width="1.51"/><path d="M1448,76L1341,119L1478,224Z" fill="#88c277" stroke="#88c277" stroke-width="1.51"/><path d="M1370,858L1285,990L1486,1018Z" fill="#2c8f4a" stroke="#2c8f4a" stroke-width="1.51"/><path d="M1328,1117L1469,1149L1486,1018Z" fill="#208344" stroke="#208344" stroke-width="1.51"/><path d="M1429,432L1313,533L1487,512Z" fill="#5eb167" stroke="#5eb167" stroke-width="1.51"/><path d="M1285,990L1328,1117L1486,1018Z" fill="#278a49" stroke="#278a49" stroke-width="1.51"/><path d="M1341,119L1345,268L1478,224Z" fill="#83c176" stroke="#83c176" stroke-width="1.51"/><path d="M1345,268L1300,389L1429,432Z" fill="#72bc6f" stroke="#72bc6f" stroke-width="1.51"/><path d="M1323,-228L1334,-10L1460,-69Z" fill="#9ccc87" stroke="#9ccc87" stroke-width="1.51"/><path d="M1328,1117L1338,1258L1469,1149Z" fill="#1e7f44" stroke="#1e7f44" stroke-width="1.51"/><path d="M1313,533L1362,723L1440,691Z" fill="#4aaa5e" stroke="#4aaa5e" stroke-width="1.51"/><path d="M1334,-10L1341,119L1448,76Z" fill="#91c87d" stroke="#91c87d" stroke-width="1.51"/><path d="M1300,389L1313,533L1429,432Z" fill="#66b76b" stroke="#66b76b" stroke-width="1.51"/><path d="M1323,-228L1228,-30L1334,-10Z" fill="#a0d189" stroke="#a0d189" stroke-width="1.51"/><path d="M1328,1117L1208,1187L1338,1258Z" fill="#238447" stroke="#238447" stroke-width="1.51"/><path d="M1334,-10L1233,86L1341,119Z" fill="#94cd80" stroke="#94cd80" stroke-width="1.51"/><path d="M1341,119L1185,202L1345,268Z" fill="#89c97a" stroke="#89c97a" stroke-width="1.51"/><path d="M1234,712L1215,845L1362,723Z" fill="#3fa95b" stroke="#3fa95b" stroke-width="1.51"/><path d="M1313,533L1226,572L1362,723Z" fill="#53b164" stroke="#53b164" stroke-width="1.51"/><path d="M1226,572L1234,712L1362,723Z" fill="#4caf61" stroke="#4caf61" stroke-width="1.51"/><path d="M1362,723L1215,845L1370,858Z" fill="#3aa156" stroke="#3aa156" stroke-width="1.51"/><path d="M1215,845L1285,990L1370,858Z" fill="#359a52" stroke="#359a52" stroke-width="1.51"/><path d="M1182,-260L1228,-30L1323,-228Z" fill="#a4d594" stroke="#a4d594" stroke-width="1.51"/><path d="M1233,86L1185,202L1341,119Z" fill="#91ce7f" stroke="#91ce7f" stroke-width="1.51"/><path d="M1185,202L1300,389L1345,268Z" fill="#7fc577" stroke="#7fc577" stroke-width="1.51"/><path d="M1228,-30L1233,86L1334,-10Z" fill="#9ad185" stroke="#9ad185" stroke-width="1.51"/><path d="M1300,389L1162,408L1313,533Z" fill="#6cbe70" stroke="#6cbe70" stroke-width="1.51"/><path d="M1285,990L1182,1013L1328,1117Z" fill="#2d914d" stroke="#2d914d" stroke-width="1.51"/><path d="M1208,1187L1174,1240L1338,1258Z" fill="#268348" stroke="#268348" stroke-width="1.51"/><path d="M1185,202L1162,408L1300,389Z" fill="#7ec677" stroke="#7ec677" stroke-width="1.51"/><path d="M1162,408L1226,572L1313,533Z" fill="#66bb6e" stroke="#66bb6e" stroke-width="1.51"/><path d="M1182,1013L1208,1187L1328,1117Z" fill="#2b8d4c" stroke="#2b8d4c" stroke-width="1.51"/><path d="M768,-187L917,-160L1182,-260Z" fill="#bce2a5" stroke="#bce2a5" stroke-width="1.51"/><path d="M1215,845L1182,1013L1285,990Z" fill="#369951" stroke="#369951" stroke-width="1.51"/><path d="M1182,-260L1036,-166L1228,-30Z" fill="#acd997" stroke="#acd997" stroke-width="1.51"/><path d="M917,-160L1036,-166L1182,-260Z" fill="#b5dea1" stroke="#b5dea1" stroke-width="1.51"/><path d="M1182,1013L1062,1097L1208,1187Z" fill="#369250" stroke="#369250" stroke-width="1.51"/><path d="M1020,858L1182,1013L1215,845Z" fill="#42a158" stroke="#42a158" stroke-width="1.51"/><path d="M1003,720L1020,858L1215,845Z" fill="#4fad61" stroke="#4fad61" stroke-width="1.51"/><path d="M1162,408L1038,492L1226,572Z" fill="#6fc173" stroke="#6fc173" stroke-width="1.51"/><path d="M1036,-166L1032,-98L1228,-30Z" fill="#afdb94" stroke="#afdb94" stroke-width="1.51"/><path d="M1228,-30L1011,43L1233,86Z" fill="#a1d589" stroke="#a1d589" stroke-width="1.51"/><path d="M1011,43L1185,202L1233,86Z" fill="#9dd486" stroke="#9dd486" stroke-width="1.51"/><path d="M1226,572L1003,720L1234,712Z" fill="#57b467" stroke="#57b467" stroke-width="1.51"/><path d="M1003,720L1215,845L1234,712Z" fill="#4baf61" stroke="#4baf61" stroke-width="1.51"/><path d="M1038,492L1003,720L1226,572Z" fill="#66bc6f" stroke="#66bc6f" stroke-width="1.51"/><path d="M1011,43L1035,198L1185,202Z" fill="#9ed587" stroke="#9ed587" stroke-width="1.51"/><path d="M1035,198L1162,408L1185,202Z" fill="#8dcd7f" stroke="#8dcd7f" stroke-width="1.51"/><path d="M1032,-98L1011,43L1228,-30Z" fill="#abda90" stroke="#abda90" stroke-width="1.51"/><path d="M1020,858L999,952L1182,1013Z" fill="#47a159" stroke="#47a159" stroke-width="1.51"/><path d="M1062,1097L1174,1240L1208,1187Z" fill="#328c4e" stroke="#328c4e" stroke-width="1.51"/><path d="M1035,198L1017,439L1162,408Z" fill="#88cc7d" stroke="#88cc7d" stroke-width="1.51"/><path d="M1062,1097L1063,1268L1174,1240Z" fill="#368c4f" stroke="#368c4f" stroke-width="1.51"/><path d="M999,952L1062,1097L1182,1013Z" fill="#419a56" stroke="#419a56" stroke-width="1.51"/><path d="M1017,439L1038,492L1162,408Z" fill="#7cc678" stroke="#7cc678" stroke-width="1.51"/><path d="M839,483L853,718L1003,720Z" fill="#71c274" stroke="#71c274" stroke-width="1.51"/><path d="M1011,43L909,83L1035,198Z" fill="#a9db8e" stroke="#a9db8e" stroke-width="1.51"/><path d="M869,339L1017,439L1035,198Z" fill="#93d283" stroke="#93d283" stroke-width="1.51"/><path d="M839,483L1003,720L1038,492Z" fill="#75c477" stroke="#75c477" stroke-width="1.51"/><path d="M999,952L913,966L1062,1097Z" fill="#4b9f5a" stroke="#4b9f5a" stroke-width="1.51"/><path d="M913,966L842,1126L1062,1097Z" fill="#4c9e5b" stroke="#4c9e5b" stroke-width="1.51"/><path d="M842,1126L907,1267L1062,1097Z" fill="#479658" stroke="#479658" stroke-width="1.51"/><path d="M1062,1097L907,1267L1063,1268Z" fill="#3e8f52" stroke="#3e8f52" stroke-width="1.51"/><path d="M870,-69L1011,43L1032,-98Z" fill="#b5e096" stroke="#b5e096" stroke-width="1.51"/><path d="M849,228L869,339L1035,198Z" fill="#a0d789" stroke="#a0d789" stroke-width="1.51"/><path d="M917,-160L1032,-98L1036,-166Z" fill="#b8e09d" stroke="#b8e09d" stroke-width="1.51"/><path d="M1017,439L839,483L1038,492Z" fill="#81ca7c" stroke="#81ca7c" stroke-width="1.51"/><path d="M1003,720L843,862L1020,858Z" fill="#5ab266" stroke="#5ab266" stroke-width="1.51"/><path d="M909,83L849,228L1035,198Z" fill="#a7da8d" stroke="#a7da8d" stroke-width="1.51"/><path d="M853,718L843,862L1003,720Z" fill="#63b96b" stroke="#63b96b" stroke-width="1.51"/><path d="M917,-160L870,-69L1032,-98Z" fill="#bbe29c" stroke="#bbe29c" stroke-width="1.51"/><path d="M870,-69L909,83L1011,43Z" fill="#b5df95" stroke="#b5df95" stroke-width="1.51"/><path d="M913,966L999,952L1020,858Z" fill="#50a65e" stroke="#50a65e" stroke-width="1.51"/><path d="M843,862L913,966L1020,858Z" fill="#57ac62" stroke="#57ac62" stroke-width="1.51"/><path d="M869,339L839,483L1017,439Z" fill="#8ccf81" stroke="#8ccf81" stroke-width="1.51"/><path d="M762,489L718,675L839,483Z" fill="#88cd7f" stroke="#88cd7f" stroke-width="1.51"/><path d="M839,483L718,675L853,718Z" fill="#7cc778" stroke="#7cc778" stroke-width="1.51"/><path d="M870,-69L701,101L909,83Z" fill="#bce397" stroke="#bce397" stroke-width="1.51"/><path d="M701,101L849,228L909,83Z" fill="#b4e092" stroke="#b4e092" stroke-width="1.51"/><path d="M772,1095L842,1126L913,966Z" fill="#55a15e" stroke="#55a15e" stroke-width="1.51"/><path d="M768,-187L870,-69L917,-160Z" fill="#c4e6a3" stroke="#c4e6a3" stroke-width="1.51"/><path d="M690,977L772,1095L783,876Z" fill="#63aa63" stroke="#63aa63" stroke-width="1.51"/><path d="M843,862L783,876L913,966Z" fill="#5fae64" stroke="#5fae64" stroke-width="1.51"/><path d="M783,876L772,1095L913,966Z" fill="#5ca861" stroke="#5ca861" stroke-width="1.51"/><path d="M783,351L839,483L869,339Z" fill="#97d485" stroke="#97d485" stroke-width="1.51"/><path d="M842,1126L680,1313L907,1267Z" fill="#519559" stroke="#519559" stroke-width="1.51"/><path d="M772,1095L680,1313L842,1126Z" fill="#579b5d" stroke="#579b5d" stroke-width="1.51"/><path d="M783,876L843,862L853,718Z" fill="#66b66b" stroke="#66b66b" stroke-width="1.51"/><path d="M849,228L789,274L869,339Z" fill="#a4d98a" stroke="#a4d98a" stroke-width="1.51"/><path d="M789,274L783,351L869,339Z" fill="#a1d889" stroke="#a1d889" stroke-width="1.51"/><path d="M768,-187L690,-80L870,-69Z" fill="#c9e8a3" stroke="#c9e8a3" stroke-width="1.51"/><path d="M690,-80L701,101L870,-69Z" fill="#c6e79c" stroke="#c6e79c" stroke-width="1.51"/><path d="M783,351L762,489L839,483Z" fill="#94d283" stroke="#94d283" stroke-width="1.51"/><path d="M701,101L789,274L849,228Z" fill="#b1df90" stroke="#b1df90" stroke-width="1.51"/><path d="M718,675L783,876L853,718Z" fill="#6ebe70" stroke="#6ebe70" stroke-width="1.51"/><path d="M487,-240L541,-163L768,-187Z" fill="#d9f0b2" stroke="#d9f0b2" stroke-width="1.51"/><path d="M598,1179L680,1313L772,1095Z" fill="#5e9d5e" stroke="#5e9d5e" stroke-width="1.51"/><path d="M718,675L547,812L783,876Z" fill="#76bf72" stroke="#76bf72" stroke-width="1.51"/><path d="M608,338L762,489L783,351Z" fill="#a1d789" stroke="#a1d789" stroke-width="1.51"/><path d="M640,257L783,351L789,274Z" fill="#abdc8d" stroke="#abdc8d" stroke-width="1.51"/><path d="M701,101L640,257L789,274Z" fill="#b6e192" stroke="#b6e192" stroke-width="1.51"/><path d="M561,502L718,675L762,489Z" fill="#90d082" stroke="#90d082" stroke-width="1.51"/><path d="M547,812L690,977L783,876Z" fill="#70b66b" stroke="#70b66b" stroke-width="1.51"/><path d="M640,257L608,338L783,351Z" fill="#aede8e" stroke="#aede8e" stroke-width="1.51"/><path d="M608,338L561,502L762,489Z" fill="#a0d889" stroke="#a0d889" stroke-width="1.51"/><path d="M690,977L603,1000L772,1095Z" fill="#66aa64" stroke="#66aa64" stroke-width="1.51"/><path d="M603,1000L598,1179L772,1095Z" fill="#65a663" stroke="#65a663" stroke-width="1.51"/><path d="M541,-163L690,-80L768,-187Z" fill="#d3edaa" stroke="#d3edaa" stroke-width="1.51"/><path d="M541,-163L593,-76L690,-80Z" fill="#d7eea8" stroke="#d7eea8" stroke-width="1.51"/><path d="M547,812L603,1000L690,977Z" fill="#72b36a" stroke="#72b36a" stroke-width="1.51"/><path d="M690,-80L593,-76L701,101Z" fill="#ceeba0" stroke="#ceeba0" stroke-width="1.51"/><path d="M593,-76L540,87L701,101Z" fill="#cdeb9f" stroke="#cdeb9f" stroke-width="1.51"/><path d="M561,502L536,635L718,675Z" fill="#90d081" stroke="#90d081" stroke-width="1.51"/><path d="M536,635L547,812L718,675Z" fill="#84c97a" stroke="#84c97a" stroke-width="1.51"/><path d="M598,1179L596,1336L680,1313Z" fill="#60975d" stroke="#60975d" stroke-width="1.51"/><path d="M540,87L640,257L701,101Z" fill="#c4e798" stroke="#c4e798" stroke-width="1.51"/><path d="M536,635L465,706L547,812Z" fill="#89cb7c" stroke="#89cb7c" stroke-width="1.51"/><path d="M547,812L469,1001L603,1000Z" fill="#77b56c" stroke="#77b56c" stroke-width="1.51"/><path d="M466,1124L598,1179L603,1000Z" fill="#6ca966" stroke="#6ca966" stroke-width="1.51"/><path d="M540,87L480,96L640,257Z" fill="#c9e99b" stroke="#c9e99b" stroke-width="1.51"/><path d="M385,219L608,338L640,257Z" fill="#bce495" stroke="#bce495" stroke-width="1.51"/><path d="M480,96L385,219L640,257Z" fill="#c8e99b" stroke="#c8e99b" stroke-width="1.51"/><path d="M434,-5L540,87L593,-76Z" fill="#d6efa4" stroke="#d6efa4" stroke-width="1.51"/><path d="M457,1328L596,1336L598,1179Z" fill="#659960" stroke="#659960" stroke-width="1.51"/><path d="M466,1124L457,1328L598,1179Z" fill="#6ba164" stroke="#6ba164" stroke-width="1.51"/><path d="M469,1001L466,1124L603,1000Z" fill="#73ae69" stroke="#73ae69" stroke-width="1.51"/><path d="M385,219L421,426L608,338Z" fill="#bce495" stroke="#bce495" stroke-width="1.51"/><path d="M421,426L561,502L608,338Z" fill="#acdc8e" stroke="#acdc8e" stroke-width="1.51"/><path d="M541,-163L434,-5L593,-76Z" fill="#dcf1a9" stroke="#dcf1a9" stroke-width="1.51"/><path d="M434,-5L480,96L540,87Z" fill="#d5eea2" stroke="#d5eea2" stroke-width="1.51"/><path d="M381,848L469,1001L547,812Z" fill="#80bc72" stroke="#80bc72" stroke-width="1.51"/><path d="M448,590L536,635L561,502Z" fill="#9ad486" stroke="#9ad486" stroke-width="1.51"/><path d="M421,426L448,590L561,502Z" fill="#a5da8b" stroke="#a5da8b" stroke-width="1.51"/><path d="M465,706L381,848L547,812Z" fill="#87c679" stroke="#87c679" stroke-width="1.51"/><path d="M487,-240L337,-40L541,-163Z" fill="#e3f4b2" stroke="#e3f4b2" stroke-width="1.51"/><path d="M337,-40L434,-5L541,-163Z" fill="#e2f3ab" stroke="#e2f3ab" stroke-width="1.51"/><path d="M448,590L465,706L536,635Z" fill="#94d082" stroke="#94d082" stroke-width="1.51"/><path d="M-193,-264L85,-198L240,-241Z" fill="#fafdcb" stroke="#fafdcb" stroke-width="1.51"/><path d="M385,219L314,264L421,426Z" fill="#c6e899" stroke="#c6e899" stroke-width="1.51"/><path d="M235,1117L231,1330L457,1328Z" fill="#76a268" stroke="#76a268" stroke-width="1.51"/><path d="M235,1117L457,1328L466,1124Z" fill="#75a768" stroke="#75a768" stroke-width="1.51"/><path d="M287,1015L466,1124L469,1001Z" fill="#7ab16d" stroke="#7ab16d" stroke-width="1.51"/><path d="M240,-241L337,-40L487,-240Z" fill="#ebf7b8" stroke="#ebf7b8" stroke-width="1.51"/><path d="M381,848L287,1015L469,1001Z" fill="#82b971" stroke="#82b971" stroke-width="1.51"/><path d="M434,-5L271,62L480,96Z" fill="#dcf1a6" stroke="#dcf1a6" stroke-width="1.51"/><path d="M271,62L385,219L480,96Z" fill="#d8f0a2" stroke="#d8f0a2" stroke-width="1.51"/><path d="M421,426L238,522L448,590Z" fill="#acdc8f" stroke="#acdc8f" stroke-width="1.51"/><path d="M448,590L275,651L465,706Z" fill="#9bd385" stroke="#9bd385" stroke-width="1.51"/><path d="M275,651L381,848L465,706Z" fill="#92ce80" stroke="#92ce80" stroke-width="1.51"/><path d="M287,1015L235,1117L466,1124Z" fill="#7db06e" stroke="#7db06e" stroke-width="1.51"/><path d="M275,651L275,830L381,848Z" fill="#92cc7f" stroke="#92cc7f" stroke-width="1.51"/><path d="M279,428L238,522L421,426Z" fill="#b6e193" stroke="#b6e193" stroke-width="1.51"/><path d="M314,264L279,428L421,426Z" fill="#bfe597" stroke="#bfe597" stroke-width="1.51"/><path d="M337,-40L271,62L434,-5Z" fill="#e3f4aa" stroke="#e3f4aa" stroke-width="1.51"/><path d="M238,522L275,651L448,590Z" fill="#a6d98c" stroke="#a6d98c" stroke-width="1.51"/><path d="M275,830L287,1015L381,848Z" fill="#8ac077" stroke="#8ac077" stroke-width="1.51"/><path d="M271,62L314,264L385,219Z" fill="#d6eea1" stroke="#d6eea1" stroke-width="1.51"/><path d="M-193,-264L-60,-200L85,-198Z" fill="#fcfed1" stroke="#fcfed1" stroke-width="1.51"/><path d="M275,830L158,955L287,1015Z" fill="#8bbe77" stroke="#8bbe77" stroke-width="1.51"/><path d="M271,62L141,122L314,264Z" fill="#ddf2a6" stroke="#ddf2a6" stroke-width="1.51"/><path d="M152,-18L271,62L337,-40Z" fill="#e8f6ad" stroke="#e8f6ad" stroke-width="1.51"/><path d="M240,-241L152,-18L337,-40Z" fill="#eff9b4" stroke="#eff9b4" stroke-width="1.51"/><path d="M275,651L91,710L275,830Z" fill="#9cd286" stroke="#9cd286" stroke-width="1.51"/><path d="M136,270L125,397L279,428Z" fill="#c8e99d" stroke="#c8e99d" stroke-width="1.51"/><path d="M141,122L136,270L314,264Z" fill="#d8f0a4" stroke="#d8f0a4" stroke-width="1.51"/><path d="M136,270L279,428L314,264Z" fill="#cbea9d" stroke="#cbea9d" stroke-width="1.51"/><path d="M101,1339L231,1330L235,1117Z" fill="#7ca46d" stroke="#7ca46d" stroke-width="1.51"/><path d="M32,1189L101,1339L235,1117Z" fill="#81aa70" stroke="#81aa70" stroke-width="1.51"/><path d="M85,-198L152,-18L240,-241Z" fill="#f4fbbe" stroke="#f4fbbe" stroke-width="1.51"/><path d="M158,955L235,1117L287,1015Z" fill="#85b674" stroke="#85b674" stroke-width="1.51"/><path d="M117,1096L32,1189L235,1117Z" fill="#85b073" stroke="#85b073" stroke-width="1.51"/><path d="M238,522L98,553L275,651Z" fill="#aedc91" stroke="#aedc91" stroke-width="1.51"/><path d="M91,875L158,955L275,830Z" fill="#92c37c" stroke="#92c37c" stroke-width="1.51"/><path d="M91,710L91,875L275,830Z" fill="#99cc82" stroke="#99cc82" stroke-width="1.51"/><path d="M125,397L238,522L279,428Z" fill="#bde398" stroke="#bde398" stroke-width="1.51"/><path d="M158,955L117,1096L235,1117Z" fill="#87b675" stroke="#87b675" stroke-width="1.51"/><path d="M98,553L91,710L275,651Z" fill="#a9d98e" stroke="#a9d98e" stroke-width="1.51"/><path d="M152,-18L141,122L271,62Z" fill="#e7f6ad" stroke="#e7f6ad" stroke-width="1.51"/><path d="M125,397L98,553L238,522Z" fill="#bae298" stroke="#bae298" stroke-width="1.51"/><path d="M21,674L91,710L98,553Z" fill="#acda91" stroke="#acda91" stroke-width="1.51"/><path d="M34,348L125,397L136,270Z" fill="#d0eba2" stroke="#d0eba2" stroke-width="1.51"/><path d="M-47,208L136,270L141,122Z" fill="#e0f2aa" stroke="#e0f2aa" stroke-width="1.51"/><path d="M85,-198L11,-115L152,-18Z" fill="#f7fcbc" stroke="#f7fcbc" stroke-width="1.51"/><path d="M-33,54L141,122L152,-18Z" fill="#ecf8b1" stroke="#ecf8b1" stroke-width="1.51"/><path d="M16,970L117,1096L158,955Z" fill="#8dba79" stroke="#8dba79" stroke-width="1.51"/><path d="M91,875L16,970L158,955Z" fill="#92c17c" stroke="#92c17c" stroke-width="1.51"/><path d="M11,-115L-33,54L152,-18Z" fill="#f4fbb7" stroke="#f4fbb7" stroke-width="1.51"/><path d="M34,348L-61,532L98,553Z" fill="#c1e59e" stroke="#c1e59e" stroke-width="1.51"/><path d="M34,348L98,553L125,397Z" fill="#c5e79d" stroke="#c5e79d" stroke-width="1.51"/><path d="M-33,54L-47,208L141,122Z" fill="#e9f6b1" stroke="#e9f6b1" stroke-width="1.51"/><path d="M-21,857L91,875L91,710Z" fill="#9ccd85" stroke="#9ccd85" stroke-width="1.51"/><path d="M32,1189L-30,1254L101,1339Z" fill="#83a673" stroke="#83a673" stroke-width="1.51"/><path d="M-47,208L34,348L136,270Z" fill="#d9efa8" stroke="#d9efa8" stroke-width="1.51"/><path d="M-30,1254L-209,1319L101,1339Z" fill="#82a376" stroke="#82a376" stroke-width="1.51"/><path d="M16,970L32,1189L117,1096Z" fill="#8bb678" stroke="#8bb678" stroke-width="1.51"/><path d="M21,674L-21,857L91,710Z" fill="#a2d48c" stroke="#a2d48c" stroke-width="1.51"/><path d="M-61,532L21,674L98,553Z" fill="#b4de98" stroke="#b4de98" stroke-width="1.51"/><path d="M-21,857L16,970L91,875Z" fill="#97c581" stroke="#97c581" stroke-width="1.51"/><path d="M-60,-200L11,-115L85,-198Z" fill="#fafcc7" stroke="#fafcc7" stroke-width="1.51"/><path d="M-159,-68L-33,54L11,-115Z" fill="#f7fcc0" stroke="#f7fcc0" stroke-width="1.51"/><path d="M-154,957L-214,1105L16,970Z" fill="#91bc86" stroke="#91bc86" stroke-width="1.51"/><path d="M-112,684L-21,857L21,674Z" fill="#a4d591" stroke="#a4d591" stroke-width="1.51"/><path d="M-61,532L-112,684L21,674Z" fill="#b0dc9a" stroke="#b0dc9a" stroke-width="1.51"/><path d="M16,970L-214,1105L32,1189Z" fill="#8cb67f" stroke="#8cb67f" stroke-width="1.51"/><path d="M-214,1105L-30,1254L32,1189Z" fill="#87af7d" stroke="#87af7d" stroke-width="1.51"/><path d="M-155,417L-61,532L34,348Z" fill="#c8e8a7" stroke="#c8e8a7" stroke-width="1.51"/><path d="M-47,208L-145,250L34,348Z" fill="#dbf0af" stroke="#dbf0af" stroke-width="1.51"/><path d="M-145,250L-155,417L34,348Z" fill="#d4edae" stroke="#d4edae" stroke-width="1.51"/><path d="M-21,857L-154,957L16,970Z" fill="#96c386" stroke="#96c386" stroke-width="1.51"/><path d="M-60,-200L-159,-68L11,-115Z" fill="#fafdc8" stroke="#fafdc8" stroke-width="1.51"/><path d="M-205,34L-145,250L-47,208Z" fill="#e7f6ba" stroke="#e7f6ba" stroke-width="1.51"/><path d="M-205,34L-47,208L-33,54Z" fill="#ecf8bb" stroke="#ecf8bb" stroke-width="1.51"/><path d="M-112,684L-190,821L-21,857Z" fill="#a1d193" stroke="#a1d193" stroke-width="1.51"/><path d="M-190,821L-154,957L-21,857Z" fill="#9ac88e" stroke="#9ac88e" stroke-width="1.51"/><path d="M-175,543L-112,684L-61,532Z" fill="#b6dfa2" stroke="#b6dfa2" stroke-width="1.51"/><path d="M-159,-68L-205,34L-33,54Z" fill="#f4fbc3" stroke="#f4fbc3" stroke-width="1.51"/><path d="M-214,1105L-209,1319L-30,1254Z" fill="#86ab80" stroke="#86ab80" stroke-width="1.51"/><path d="M-155,417L-175,543L-61,532Z" fill="#c0e5a8" stroke="#c0e5a8" stroke-width="1.51"/><path d="M-193,-264L-159,-68L-60,-200Z" fill="#fcfdd2" stroke="#fcfdd2" stroke-width="1.51"/><path d="M-175,543L-190,821L-112,684Z" fill="#abd99e" stroke="#abd99e" stroke-width="1.51"/><path d="M-205,34L-155,417L-145,250Z" fill="#e0f2b9" stroke="#e0f2b9" stroke-width="1.51"/><path d="M-193,-264L-205,34L-159,-68Z" fill="#fbfdcd" stroke="#fbfdcd" stroke-width="1.51"/><path d="M-205,34L-175,543L-155,417Z" fill="#d6eeb5" stroke="#d6eeb5" stroke-width="1.51"/><path d="M-190,821L-214,1105L-154,957Z" fill="#95c08d" stroke="#95c08d" stroke-width="1.51"/><path d="M-205,34L-190,821L-175,543Z" fill="#c6e6ae" stroke="#c6e6ae" stroke-width="1.51"/><path d="M-205,34L-214,1105L-190,821Z" fill="#afdba3" stroke="#afdba3" stroke-width="1.51"/></svg>